HIERARCHY
ROOT Pelvis
{
	OFFSET 0.000000 0.000000 0.000000
	CHANNELS 6 Xposition Yposition Zposition Xrotation Yrotation Zrotation
	JOINT LeftUpLeg_virtual
	{
		OFFSET 0.000000 0.000000 0.000000
		CHANNELS 3 Xrotation Yrotation Zrotation
		JOINT LeftUpLeg
		{
			OFFSET 18.735201 -5.666702 -4.541200
			CHANNELS 3 Xrotation Yrotation Zrotation
			JOINT LeftLeg
			{
				OFFSET -0.021200 -31.938179 0.493100
				CHANNELS 3 Xrotation Yrotation Zrotation
				JOINT LeftFoot
				{
					OFFSET 0.021200 -31.938179 -4.336299
					CHANNELS 3 Xrotation Yrotation Zrotation
					JOINT LeftToeBase
					{
						OFFSET 0.943001 -26.722000 15.023500
						CHANNELS 3 Xrotation Yrotation Zrotation
						End Site
						{
							OFFSET 0 0 0
						}
					}
				}
			}
		}
	}
	JOINT RightUpLeg_virtual
	{
		OFFSET 0.000000 0.000000 0.000000
		CHANNELS 3 Xrotation Yrotation Zrotation
		JOINT RightUpLeg
		{
			OFFSET -18.735201 -5.666702 -4.541200
			CHANNELS 3 Xrotation Yrotation Zrotation
			JOINT RightLeg
			{
				OFFSET 0.018946 -31.938133 0.493100
				CHANNELS 3 Xrotation Yrotation Zrotation
				JOINT RightFoot
				{
					OFFSET -0.018946 -31.938126 -4.336299
					CHANNELS 3 Xrotation Yrotation Zrotation
					JOINT RightToeBase
					{
						OFFSET -0.943001 -26.722004 15.023500
						CHANNELS 3 Xrotation Yrotation Zrotation
						End Site
						{
							OFFSET 0 0 0
						}
					}
				}
			}
		}
	}
	JOINT Hips_virtual
	{
		OFFSET 0.000000 0.000000 0.000000
		CHANNELS 3 Xrotation Yrotation Zrotation
		JOINT Hips
		{
			OFFSET -0.000000 -0.000000 -0.000000
			CHANNELS 3 Xrotation Yrotation Zrotation
			JOINT Spine
			{
				OFFSET 0.000000 10.199997 -0.299500
				CHANNELS 3 Xrotation Yrotation Zrotation
				JOINT Spine1
				{
					OFFSET 0.000000 11.900002 -1.516600
					CHANNELS 3 Xrotation Yrotation Zrotation
					JOINT Spine2
					{
						OFFSET 0.000000 13.600006 -2.842500
						CHANNELS 3 Xrotation Yrotation Zrotation
						JOINT Neck_virtual
						{
							OFFSET 0.000000 0.000000 0.000000
							CHANNELS 3 Xrotation Yrotation Zrotation
							JOINT Neck
							{
								OFFSET 0.000000 9.624100 -2.890100
								CHANNELS 3 Xrotation Yrotation Zrotation
								JOINT Head
								{
									OFFSET 0.000000 14.068802 -1.351900
									CHANNELS 3 Xrotation Yrotation Zrotation
									End Site
									{
										OFFSET 0 0 0
									}
								}
							}
						}
						JOINT LeftShoulder_virtual
						{
							OFFSET 0.000000 0.000000 0.000000
							CHANNELS 3 Xrotation Yrotation Zrotation
							JOINT LeftShoulder
							{
								OFFSET 15.263000 10.923401 -0.547700
								CHANNELS 3 Xrotation Yrotation Zrotation
								JOINT LeftArm
								{
									OFFSET 25.438599 -2.830597 -13.032500
									CHANNELS 3 Xrotation Yrotation Zrotation
									JOINT LeftForeArm
									{
										OFFSET 29.960503 0.000000 0.000000
										CHANNELS 3 Xrotation Yrotation Zrotation
										JOINT LeftHand
										{
											OFFSET 27.849251 0.000000 0.000000
											CHANNELS 3 Xrotation Yrotation Zrotation
											End Site
											{
												OFFSET 0 0 0
											}
										}
									}
								}
							}
						}
						JOINT RightShoulder_virtual
						{
							OFFSET 0.000000 0.000000 0.000000
							CHANNELS 3 Xrotation Yrotation Zrotation
							JOINT RightShoulder
							{
								OFFSET -15.263000 10.923401 -0.547700
								CHANNELS 3 Xrotation Yrotation Zrotation
								JOINT RightArm
								{
									OFFSET -25.438599 -2.830597 -13.032500
									CHANNELS 3 Xrotation Yrotation Zrotation
									JOINT RightForeArm
									{
										OFFSET -29.960503 0.000000 0.000000
										CHANNELS 3 Xrotation Yrotation Zrotation
										JOINT RightHand
										{
											OFFSET -27.849251 0.000000 0.000000
											CHANNELS 3 Xrotation Yrotation Zrotation
											End Site
											{
												OFFSET 0 0 0
											}
										}
									}
								}
							}
						}
					}
				}
			}
		}
	}
}
MOTION
Frames: 10
Frame Time: 0.03333333
2.770370 93.426064 13.572329 0.000000 0.000000 0.000000 11.237802 7.133428 -5.261147 -29.994755 15.145898 13.807617 36.398235 -17.601397 1.991220 -15.263111 -17.567484 -13.949515 0.000000 0.000000 0.000000 6.639510 46.432142 2.132565 -19.360188 7.623133 -7.056300 34.313320 8.677206 -6.217245 -16.789394 7.968022 6.434661 0.000000 0.000000 0.000000 0.986175 4.597215 0.503197 8.120846 32.864388 -6.520309 7.256422 0.769631 -0.336672 0.556861 0.582238 0.758914 0.000000 0.000000 0.000000 1.064115 3.461177 0.409407 -0.295412 3.675007 -0.806325 0.000000 0.000000 0.000000 2.162106 0.249954 2.043881 0.913128 -0.415158 0.961701 -47.003999 -8.326439 -28.566556 -10.985468 -52.653423 -3.197355 0.000000 0.000000 0.000000 4.194898 0.992536 1.819629 4.731220 10.560107 8.897851 17.851121 4.237936 51.628201 9.585699 52.089324 0.008027 0.000000 0.000000 0.000000 
2.279892 93.567123 14.091887 0.000000 0.000000 0.000000 11.369564 8.964041 -5.418176 -30.476461 15.626361 14.196799 36.590843 -17.942434 1.618651 -15.337036 -17.622269 -14.760228 0.000000 0.000000 0.000000 7.012216 47.506773 2.256822 -18.726389 7.882611 -6.652265 32.955096 7.453293 -6.001610 -17.584595 6.613921 5.796686 0.000000 0.000000 0.000000 1.036729 5.861626 0.454025 7.846152 34.395081 -6.687970 7.262605 0.673487 -0.361228 0.583347 0.511605 0.748932 0.000000 0.000000 0.000000 0.929314 3.260655 0.457210 -0.343423 3.510628 -0.794210 0.000000 0.000000 0.000000 2.097247 0.017389 2.110160 0.859238 -1.608803 1.159063 -47.230475 -8.725900 -28.745077 -11.053655 -52.875486 -3.347955 0.000000 0.000000 0.000000 4.105028 0.926620 1.882746 4.645791 10.394120 9.009266 17.343073 3.551804 51.726471 9.124403 50.768359 0.348688 0.000000 0.000000 0.000000 
1.763446 93.641335 14.427289 0.000000 0.000000 0.000000 11.393602 12.081128 -5.513560 -30.970065 16.312908 14.768768 36.343956 -17.580921 1.275996 -15.390523 -17.127574 -14.986289 0.000000 0.000000 0.000000 7.337873 48.427407 2.351540 -18.168508 8.113696 -6.305618 31.761107 6.309459 -5.832521 -18.252605 5.381029 5.175315 0.000000 0.000000 0.000000 1.058733 7.064904 0.415081 7.418366 35.859402 -6.746284 7.281441 0.608321 -0.406791 0.617488 0.457731 0.728139 0.000000 0.000000 0.000000 0.789077 3.112299 0.526131 -0.395961 3.377831 -0.769120 0.000000 0.000000 0.000000 2.053268 -0.183470 2.173232 0.813712 -2.683813 1.341692 -47.404689 -9.060330 -28.927873 -11.092458 -53.086412 -3.480714 0.000000 0.000000 0.000000 4.013431 0.873108 1.941612 4.549182 10.264279 9.110121 16.742481 2.828764 51.760068 8.645082 49.482091 0.647448 0.000000 0.000000 0.000000 
1.231138 93.705666 14.537044 0.000000 0.000000 0.000000 11.405910 15.315823 -5.597223 -31.421664 17.009126 15.344066 36.079416 -16.898130 0.963056 -15.334021 -16.377192 -14.955157 0.000000 0.000000 0.000000 7.670343 49.342154 2.404005 -17.624354 8.354821 -5.996041 30.830852 5.332429 -5.685827 -18.742609 4.336087 4.669893 0.000000 0.000000 0.000000 1.047342 8.161023 0.389622 6.803067 37.180374 -6.653084 7.302693 0.566160 -0.445396 0.649435 0.417178 0.711380 0.000000 0.000000 0.000000 0.654406 2.997665 0.595491 -0.446507 3.266277 -0.744310 0.000000 0.000000 0.000000 2.041544 -0.357040 2.231268 0.789238 -3.652502 1.494672 -47.551145 -9.368821 -29.119910 -11.123082 -53.291332 -3.611247 0.000000 0.000000 0.000000 3.926977 0.829731 2.011349 4.439731 10.163128 9.262350 16.048812 2.084569 51.741227 8.169137 48.271607 0.891006 0.000000 0.000000 0.000000 
0.726053 93.775665 14.567471 0.000000 0.000000 0.000000 11.496831 18.424516 -5.722771 -31.737041 17.703278 15.844973 35.960201 -15.928790 0.731119 -15.080532 -15.419881 -14.640444 0.000000 0.000000 0.000000 8.015814 50.367762 2.411706 -17.094468 8.640804 -5.711772 30.180680 4.560259 -5.562168 -19.062520 3.510134 4.298766 0.000000 0.000000 0.000000 1.032233 9.166252 0.374894 6.141556 38.367485 -6.496861 7.355434 0.534933 -0.473005 0.696697 0.384289 0.701614 0.000000 0.000000 0.000000 0.520263 2.908294 0.650119 -0.499782 3.172252 -0.726885 0.000000 0.000000 0.000000 2.032762 -0.516894 2.296048 0.760846 -4.560726 1.677060 -47.655541 -9.643265 -29.239538 -11.118750 -53.460372 -3.688863 0.000000 0.000000 0.000000 3.852307 0.810840 2.097984 4.319874 10.152630 9.482059 15.264122 1.357427 51.689420 7.683913 47.195545 1.104523 0.000000 0.000000 0.000000 
0.273234 93.867195 14.585392 0.000000 0.000000 0.000000 11.598594 21.165856 -5.730244 -31.927108 18.286346 16.378450 35.972086 -14.625954 0.719310 -14.621072 -14.281862 -13.799193 0.000000 0.000000 0.000000 8.304883 51.262390 2.424781 -16.653693 8.892165 -5.459755 29.710322 3.913188 -5.451807 -19.275130 2.816109 4.010270 0.000000 0.000000 0.000000 1.065012 10.145165 0.333471 5.761477 39.533070 -6.610237 7.442393 0.492483 -0.489526 0.761289 0.347806 0.698272 0.000000 0.000000 0.000000 0.410929 2.839300 0.701131 -0.545885 3.094852 -0.710858 0.000000 0.000000 0.000000 2.047199 -0.668387 2.364216 0.740438 -5.406413 1.873684 -47.670257 -9.890332 -29.342151 -11.062913 -53.609806 -3.734132 0.000000 0.000000 0.000000 3.795957 0.788030 2.185425 4.210505 10.117236 9.705333 14.440572 0.604734 51.642026 7.179518 46.223817 1.310237 0.000000 0.000000 0.000000 
-0.128467 93.975021 14.554570 0.000000 0.000000 0.000000 11.715934 23.626314 -5.687629 -32.016116 18.801023 16.897719 35.988847 -13.013317 0.874331 -14.058053 -12.940074 -12.505900 0.000000 0.000000 0.000000 8.503341 51.933538 2.473025 -16.349648 9.070369 -5.245527 29.425760 3.354433 -5.354833 -19.378544 2.217912 3.779214 0.000000 0.000000 0.000000 1.096829 10.971276 0.307018 5.331657 40.507936 -6.639426 7.549867 0.434418 -0.485337 0.836264 0.304552 0.706001 0.000000 0.000000 0.000000 0.327708 2.767752 0.757451 -0.585034 3.018505 -0.694200 0.000000 0.000000 0.000000 2.066796 -0.812276 2.443003 0.715130 -6.195574 2.088904 -47.641912 -10.113396 -29.417690 -10.983861 -53.705573 -3.759014 0.000000 0.000000 0.000000 3.750042 0.753150 2.275600 4.106109 10.035384 9.932272 13.618231 -0.156269 51.576756 6.684839 45.301558 1.478800 0.000000 0.000000 0.000000 
-0.505540 94.106636 14.489313 0.000000 0.000000 0.000000 12.254102 26.045263 -6.043401 -31.847294 19.498636 17.149007 35.818478 -10.749563 1.204982 -13.564374 -11.009879 -10.497236 0.000000 0.000000 0.000000 8.628997 52.489485 2.551059 -16.151249 9.210046 -5.052704 29.242577 2.855735 -5.277335 -19.432243 1.688255 3.568603 0.000000 0.000000 0.000000 1.112696 11.723444 0.281947 4.856747 41.467800 -6.684933 7.666945 0.354944 -0.477204 0.915148 0.251974 0.715498 0.000000 0.000000 0.000000 0.283423 2.686337 0.813243 -0.605708 2.943808 -0.678501 0.000000 0.000000 0.000000 2.093126 -0.958753 2.528267 0.694089 -6.937214 2.320259 -47.543745 -10.364508 -29.545554 -10.880687 -53.862892 -3.796051 0.000000 0.000000 0.000000 3.707044 0.700895 2.365610 4.001220 9.884587 10.153684 12.741171 -1.029502 51.536970 6.162069 44.439492 1.651764 0.000000 0.000000 0.000000 
-0.866000 94.219025 14.327558 0.000000 0.000000 0.000000 12.890876 28.303732 -6.533204 -31.633359 20.210077 17.292039 35.717948 -8.387313 1.549639 -13.078083 -8.941365 -8.417827 0.000000 0.000000 0.000000 8.682449 52.859852 2.616907 -16.074142 9.298212 -4.931858 29.114737 2.382704 -5.212200 -19.461338 1.189307 3.362234 0.000000 0.000000 0.000000 1.156150 12.334799 0.229504 4.575371 42.316304 -6.994130 7.790682 0.243513 -0.473433 0.997251 0.184698 0.722413 0.000000 0.000000 0.000000 0.280295 2.583257 0.882775 -0.606431 2.860164 -0.654628 0.000000 0.000000 0.000000 2.133110 -1.106367 2.610894 0.684176 -7.643346 2.539136 -47.318659 -10.611226 -29.663962 -10.702614 -53.997748 -3.793001 0.000000 0.000000 0.000000 3.660447 0.628943 2.447701 3.892899 9.661192 10.335733 11.758242 -2.004694 51.470714 5.596625 43.613541 1.823423 0.000000 0.000000 0.000000 
-1.147574 94.281784 14.080331 0.000000 0.000000 0.000000 13.477847 30.466462 -6.998956 -31.422736 20.878737 17.429179 35.680375 -6.007345 1.840095 -12.603389 -6.785465 -6.420764 0.000000 0.000000 0.000000 8.666697 53.100336 2.706920 -16.093582 9.344245 -4.838209 29.045325 1.968337 -5.130560 -19.459074 0.738908 3.226823 0.000000 0.000000 0.000000 1.197153 12.900355 0.189540 4.241521 43.141029 -7.229715 7.909863 0.126858 -0.451428 1.074350 0.114773 0.739868 0.000000 0.000000 0.000000 0.283417 2.469264 0.969928 -0.604894 2.773105 -0.619716 0.000000 0.000000 0.000000 2.175294 -1.240074 2.683405 0.672997 -8.259492 2.722702 -47.054830 -10.760389 -29.672685 -10.496841 -53.996597 -3.733560 0.000000 0.000000 0.000000 3.610887 0.543963 2.524662 3.779656 9.390877 10.492388 10.713666 -3.018390 51.371516 5.013614 42.843161 1.986514 0.000000 0.000000 0.000000 
